<svg width="847" height="18" viewBox="0 0 847 18" fill="none" xmlns="http://www.w3.org/2000/svg">
<path d="M0 2C0 0.89543 0.895431 0 2 0H1006C1007.1 0 1008 0.895431 1008 2V6H0V2Z" fill="#A3ACB1"/>
<path d="M0 2C0 0.89543 0.895431 0 2 0H1006C1007.1 0 1008 0.895431 1008 2V6H0V2Z" fill="url(#paint0_linear_114_518)"/>
<path d="M0 6H1008L987.646 10.105C961.613 15.3553 935.123 18 908.566 18H97.9089C68.724 18 39.6267 14.8059 11.1367 8.47482L0 6Z" fill="#647279"/>
<path d="M0 6H1008L987.646 10.105C961.613 15.3553 935.123 18 908.566 18H97.9089C68.724 18 39.6267 14.8059 11.1367 8.47482L0 6Z" fill="url(#paint1_linear_114_518)"/>
<path fill-rule="evenodd" clip-rule="evenodd" d="M430.033 0C430.547 3.35058 428.052 6 436 6H573C580.948 6 578.453 3.35058 578.967 0H430.033Z" fill="#96A1A8"/>
<path fill-rule="evenodd" clip-rule="evenodd" d="M430.033 0C430.547 3.35058 428.052 6 436 6H573C580.948 6 578.453 3.35058 578.967 0H430.033Z" fill="url(#paint2_linear_114_518)"/>
<defs>
<linearGradient id="paint0_linear_114_518" x1="-1.94452e-10" y1="3.00007" x2="1008" y2="3.00008" gradientUnits="userSpaceOnUse">
<stop stop-color="#0D1012"/>
<stop offset="0.0295345" stop-color="#CAD4DB"/>
<stop offset="0.0625" stop-color="#242729"/>
<stop offset="0.133609" stop-color="#A3ACB1"/>
<stop offset="0.865967" stop-color="#A3ACB1"/>
<stop offset="0.941937" stop-color="#242729"/>
<stop offset="0.971275" stop-color="#CAD4DB"/>
<stop offset="0.996436" stop-color="#0D1012"/>
</linearGradient>
<linearGradient id="paint1_linear_114_518" x1="504" y1="6" x2="504" y2="18" gradientUnits="userSpaceOnUse">
<stop stop-color="#7A7F83"/>
<stop offset="1" stop-color="#0B0B0E"/>
</linearGradient>
<linearGradient id="paint2_linear_114_518" x1="437.5" y1="3.64285" x2="574.5" y2="3.64285" gradientUnits="userSpaceOnUse">
<stop stop-color="#3C3C3C"/>
<stop offset="0.317518" stop-color="#3C3C3C" stop-opacity="0"/>
<stop offset="0.660584" stop-color="#3C3C3C" stop-opacity="0"/>
<stop offset="1" stop-color="#444444"/>
</linearGradient>
</defs>
</svg>
